solid patch0
  facet normal 0 -0 -1
    outer loop
       vertex 0.1 0.4 0
       vertex 0.1 0.35 0
       vertex 0 0.35 0
    endloop
  endfacet
  facet normal 0 0 -1
    outer loop
       vertex 0 0.35 0
       vertex 0 0.4 0
       vertex 0.1 0.4 0
    endloop
  endfacet
  facet normal 0 1 0
    outer loop
       vertex 0.1 0.4 0
       vertex 0 0.4 0
       vertex 0 0.4 0.3
    endloop
  endfacet
  facet normal -0 1 0
    outer loop
       vertex 0 0.4 0.3
       vertex 0.1 0.4 0.3
       vertex 0.1 0.4 0
    endloop
  endfacet
  facet normal 0 0 1
    outer loop
       vertex 0.1 0.4 0.3
       vertex 0 0.4 0.3
       vertex 0 0 0.3
    endloop
  endfacet
  facet normal 0 0 1
    outer loop
       vertex 0 0 0.3
       vertex 0.1 0 0.3
       vertex 0.1 0.4 0.3
    endloop
  endfacet
  facet normal -0 -1 0
    outer loop
       vertex 0.1 0 0.3
       vertex 0 0 0.3
       vertex 0 0 0
    endloop
  endfacet
  facet normal 0 -1 0
    outer loop
       vertex 0 0 0
       vertex 0.1 0 0
       vertex 0.1 0 0.3
    endloop
  endfacet
  facet normal 0 0 -1
    outer loop
       vertex 0.1 0 0
       vertex 0 0 0
       vertex 0 0.05 0
    endloop
  endfacet
  facet normal 0 0 -1
    outer loop
       vertex 0 0.05 0
       vertex 0.1 0.05 0
       vertex 0.1 0 0
    endloop
  endfacet
  facet normal 1 0 -0
    outer loop
       vertex 0.1 0.4 0
       vertex 0.1 0.4 0.3
       vertex 0.1 0.35 0.09
    endloop
  endfacet
  facet normal 1 0 0
    outer loop
       vertex 0.1 0.4 0.3
       vertex 0.1 0 0.3
       vertex 0.1 0.05 0.09
    endloop
  endfacet
  facet normal 1 0 0
    outer loop
       vertex 0.1 0.05 0.09
       vertex 0.1 0.35 0.09
       vertex 0.1 0.4 0.3
    endloop
  endfacet
  facet normal 1 0 0
    outer loop
       vertex 0.1 0 0
       vertex 0.1 0.05 0
       vertex 0.1 0.05 0.09
    endloop
  endfacet
  facet normal 1 0 0
    outer loop
       vertex 0.1 0.05 0.09
       vertex 0.1 0 0.3
       vertex 0.1 0 0
    endloop
  endfacet
  facet normal 1 0 0
    outer loop
       vertex 0.1 0.35 0.09
       vertex 0.1 0.35 0
       vertex 0.1 0.4 0
    endloop
  endfacet
  facet normal -1 0 0
    outer loop
       vertex 0 0.4 0.3
       vertex 0 0.35 0.09
       vertex 0 0.05 0.09
    endloop
  endfacet
  facet normal -1 0 0
    outer loop
       vertex 0 0.4 0
       vertex 0 0.35 0
       vertex 0 0.35 0.09
    endloop
  endfacet
  facet normal -1 0 0
    outer loop
       vertex 0 0 0
       vertex 0 0 0.3
       vertex 0 0.05 0.09
    endloop
  endfacet
  facet normal -1 0 0
    outer loop
       vertex 0 0.35 0.09
       vertex 0 0.4 0.3
       vertex 0 0.4 0
    endloop
  endfacet
  facet normal -1 0 0
    outer loop
       vertex 0 0.05 0.09
       vertex 0 0 0.3
       vertex 0 0.4 0.3
    endloop
  endfacet
  facet normal -1 0 -0
    outer loop
       vertex 0 0.05 0.09
       vertex 0 0.05 0
       vertex 0 0 0
    endloop
  endfacet
  facet normal -0 1 0
    outer loop
       vertex 0 0.05 0.09
       vertex 0.1 0.05 0.09
       vertex 0.1 0.05 0
    endloop
  endfacet
  facet normal 0 1 0
    outer loop
       vertex 0.1 0.05 0
       vertex 0 0.05 0
       vertex 0 0.05 0.09
    endloop
  endfacet
  facet normal 0 -1 0
    outer loop
       vertex 0 0.35 0
       vertex 0.1 0.35 0
       vertex 0.1 0.35 0.09
    endloop
  endfacet
  facet normal -0 -1 0
    outer loop
       vertex 0.1 0.35 0.09
       vertex 0 0.35 0.09
       vertex 0 0.35 0
    endloop
  endfacet
  facet normal 0 0 -1
    outer loop
       vertex 0 0.35 0.09
       vertex 0.1 0.35 0.09
       vertex 0.1 0.05 0.09
    endloop
  endfacet
  facet normal 0 0 -1
    outer loop
       vertex 0.1 0.05 0.09
       vertex 0 0.05 0.09
       vertex 0 0.35 0.09
    endloop
  endfacet
endsolid patch0
